<svg xmlns="http://www.w3.org/2000/svg" viewBox="0 0 511.81 511.81"><defs><style>.cls-1{fill:#e6e6e6;}.cls-2{fill:#666;}.cls-3{fill:#4d4d4d;}</style></defs><g id="Layer_2" data-name="Layer 2"><circle class="cls-1" cx="268.71" cy="255.06" r="201.22"/></g><g id="Layer_1" data-name="Layer 1"><rect class="cls-2" x="457.47" y="210.52" width="17.44" height="91.26" transform="translate(722.34 -210.03) rotate(90)"/><rect class="cls-2" x="457.47" y="210.52" width="17.44" height="91.26" transform="translate(722.34 -210.03) rotate(90)"/><rect class="cls-2" x="352.2" y="392.66" width="17.44" height="91.26" transform="translate(-170.79 239.18) rotate(-30)"/><rect class="cls-2" x="428.56" y="314.54" width="17.44" height="92.8" transform="translate(-93.94 559.17) rotate(-60)"/><rect class="cls-2" x="352.36" y="28.29" width="17.44" height="91.26" transform="translate(85.33 -170.64) rotate(30)"/><rect class="cls-2" x="429.33" y="105.32" width="17.44" height="91.26" transform="translate(349.75 -303.88) rotate(60)"/><path class="cls-3" d="M255.91,511.81C114.57,511.81,0,397.24,0,255.91S114.57,0,255.91,0l.59,107a148.5,148.5,0,0,0,0,297Z"/><circle class="cls-2" cx="256.5" cy="255.06" r="12.21"/><rect class="cls-2" x="256.5" y="242.85" width="104.58" height="24.42"/><rect class="cls-2" x="244.29" y="117.4" width="24.42" height="137.66"/></g></svg>